<svg xmlns="http://www.w3.org/2000/svg" enable-background="new 0 0 496.4 388.3" viewBox="0 0 496.4 388.3" id="financial-year"><path fill="#030303" d="M496.4 359.9c-.2-1.7-1.2-3.3-2.5-4.4-.2-.3-.4-.5-.6-.7-11.2-8.8-20.8-19.4-28.3-31.4-.4-.7-.7-1.6-1.5-1.9-.7.7-.8 1.7-.4 2.6.5 1.3 1.1 2.5 1.7 3.7l.7 1.3.3.6c.1.2.2.4.4.6.5.8.9 1.6 1.9 2 .7.9 1.5 1.8 2.2 2.7 6.6 8.5 14.2 16.1 22.8 22.6.8.7 1.3 1.6 1.4 2.6 0 1.1-.4 2.1-1.1 2.9-2.5-.6-5-.4-7.5-.8-13.5-2.2-25.7-8.1-37.7-14.4-5.2-2.7-9.6-6.6-14.6-9.5-.2-.1-.4-.3-.7-.4s-.4-.3-.6-.4c-1.7-1.2-3.4-2.1-5.4-.5-.4.3-.8.7-1.1 1.1-6.9 8.1-16 12.1-26.2 13.7-7.1.9-14.2 1-21.3.1-11.6-1.1-22.9-3.7-33.9-7.6-1.2-.4-2.5-.4-3.7 0-6.1 2.2-12.6 2-18.8 1.3-10-1.2-19.6-4.6-28.1-9.8-13.9-8.1-23.4-20.1-29.6-34.8-3.9-9.3-5.5-19.3-4.8-29.3.8-9.8 3.3-19.4 7.4-28.4 4.2-9.8 9.3-19 16-27.3 4.5-5.5 9.5-10.6 14.3-15.9 5.6-6.1 10.3-13 15.2-19.7 2.1-3 2.2-2.9 5.2-1 4.3 2.9 9 5.1 14 6.5 3 .8 6 1.2 9 1.8 4.2.8 6.1 4.4 4.6 8.3s-3.4 7.6-5 11.4c-5 11.4-10.3 22.7-16.9 33.3-2.5 4-2.6 7.7.1 11.7 2.5 3.6 4.4 7.4 5.9 11.5 1.5 4.2 3.8 4.6 6.5 1.6 3.4-4 7.1-7.7 11.1-11.1 3.2-2.6 5.1-5.4 4.3-9.4-.1-.7-.2-1.4-.2-2.2-.4-12.2.2-24.4 1.5-36.5.8-6.3 1.3-12.6 6.3-17.3.4-.4.7-.9 1-1.4 1.1-2.4 3.1-3.2 5.6-3.5 13.3-1.8 25.5-6.2 35.7-15.2.5-.4.9-1 1.9-1 .6 4.3 1.5 8.6 2.7 12.8 2.9 9.1 6.6 17.8 10.1 26.6 4.4 10.9 9.5 21.4 15.5 31.4 5.3 9.1 10.6 18.1 15.6 27.4.7 2 1.7 3.9 2.8 5.6.5.8 1.4 2.2 2.2.1-.2-1.2-.5-2.3-1-3.4-2.3-5.9-5.6-11.2-8.7-16.6-5.3-9.4-11-18.6-15.9-28.3-6.1-12.1-10.8-24.8-15.7-37.4-2.1-5.2-3.6-10.6-4.3-16.1-.6-5.4-1.1-10.8-1.6-16.1-1.3-1.1-2.4-.2-3.4.5-4 2.6-7.8 5.4-11.9 7.8-11.7 6.6-23.8 11.5-37.5 12.2-9.4.4-18.1-2-26.6-5.4-1.6-.7-2.9-2.1-4.7-2.4-.5-.1-1.1 0-1.6.1-1.6.5-2.1 2.1-3 3.3-2.1 3.3-4.5 6.3-6.8 9.5-6.2 8.6-12.5 17.2-20.1 24.7-3.2 3.1-6 6.6-8.9 10.1-4.8 5.7-8.3 12.3-12 18.7-1.4 2.7-2.8 5.3-3.9 8.1-.6 1.5-2.1 2.6-3.8 2.6-12.4.3-24.9 1.1-37.3 1-7-.1-14 .6-21.1.7-4.1.1-8.3.1-12.4.5-8.7.8-17.4.9-26.1 1.3-8.2.4-16.4.3-24.6.4-20.7.3-41.3.2-61.9 1.2-5.2.2-10.3-.4-15.5-.5-16.6-.5-33.1 1.8-49.7 2.4-2.6.1-2.9-.1-3.2-2.4C7 232.7 7 217 6.6 201.2c-.4-14.9.3-29.8.1-44.7-.2-11.5-.6-23-.6-34.5 0-3.6 0-7.1-.4-10.7-.4-3.8-.1-7.6-.1-11.4 0-1.3.3-2.2 2-2.2 9.2.4 18.4.3 27.5-.3 5.4-.3 10.8 0 16.2 0 9.8 0 19.6.2 29.4-.4 10-.6 20.1-.1 30.2-.5 11.3-.5 22.7-.5 34-1 10.9-.5 21.8-.8 32.7-1 11.4-.3 22.9-.3 34.4.1 14.8.7 29.6.4 44.4-.8 9.8-.8 19.6-.9 29.3-1.5 11.2-.7 22.3 1 33.5 1.5 1.8.1 2.4 1 2.2 2.7-.8 6.8-.2 13.7-.4 20.6 0 .8-.1 1.7-.1 2.5-.6 8.5-1.1 17-1.4 25.6.3 1.2-.3 2.6 1.1 3.4.8-.4 1.3-1.1 1.5-1.9 1.3-3.7 2.5-7.4 2.4-11.4-.2-1.6-.1-3.2.3-4.8.2-2.7-.9-5.4-.1-8.1.2-6 .3-12 .5-18 .1-4 .4-8 0-11.9-.6-6.1-.8-12.2-.9-18.3V59.5c-.1-2.6-1-3.4-3.5-3.4-3.9.1-3.9.1-4-3.7-.2-3.6-1.2-7.1-2.9-10.2-2.2-4-6.3-4.7-9.9-2-2.3 1.7-3.9 4.1-4.6 6.8-.6 2.2-.9 4.5-.8 6.8.1 1.7.1 1.7-1.8 1.8h-.5c-3.7 0-3.8 0-3.9-3.8-.1-4-1.4-7.9-3.5-11.2-2.5-3.9-7.3-4.5-10.4-1-1.5 1.7-2.5 3.7-2.9 5.8-.7 2.9-.9 5.9-.6 8.8.1 1-.3 1.4-1.2 1.3h-1.3c-3.8 0-3.8 0-4.5-3.7-.6-3.6-1.9-7.1-3.7-10.3-3-5.1-8.6-3.7-10.8.3-1.8 3.2-2.7 6.8-2.6 10.4.1 1.3.1 2.5.2 3.9-2.6.1-5 .2-7.4.3-1 0-1-.6-1.1-1.3-.1-1.8-.3-3.7-.5-5.6-.3-2.5-1.2-4.9-2.7-7-2.5-3.4-6.4-3.8-9.6-1.2-1.5 1.4-2.7 3.2-3.3 5.2-.6 1.9-.9 3.9-1.1 5.9-.1 1.2.6 2.9-.4 3.6s-2.6.1-3.9.2c-.9.1-1.4-.2-1.4-1.2-.1-1.4-.2-2.7-.4-4-.5-3.6-1.7-6.9-4.6-9.3-2.5-2.2-6.3-2-8.5.5-.2.2-.3.4-.5.6-2.3 3.2-2.9 7-3.1 10.8-.1 2.6-.1 2.7-2.8 2.5h-.3c-1.1.1-1.5-.5-1.5-1.5 0-.4 0-.8-.1-1.3-.5-3.6-1.2-7.2-3.5-10.2-2.7-3.5-7.6-4.1-11.1-1.4-.7.5-1.3 1.1-1.7 1.9-1.8 2.8-2.9 6.1-3.1 9.5-.3 3.2-.2 3.2-3.5 3.2-1.8 0-1.9 0-2-1.9-.5-4.7-2.6-9.1-6-12.4-2.3-2.4-6.1-2.4-8.5-.1-1.2 1.3-2.1 2.8-2.7 4.5-1.1 2.6-1.6 5.3-1.7 8.1 0 1.3-.5 1.7-1.8 1.7-1.3-.1-2.6-.1-3.8 0-1.1.1-1.4-.4-1.4-1.4-.1-3.1-.5-6.2-1.4-9.3-.7-3.2-3.5-5.5-6.7-5.6-3.6-.4-5.7.8-7.6 4.3-1.6 3.3-2.5 6.9-2.6 10.5-.1 2 .2 2.1-2.1 2.1-3.8 0-3.8.1-4-3.9-.1-3.1-.8-6.2-2.2-9-2.8-5.3-8.8-5.9-12.8-1.3-2.7 3.2-3.7 7-3.9 11.1-.1 1.9-1.7 3.5-3.7 3.4-2.4 0-2.3.2-2.4-2.3-.1-4.1-1.1-8.1-2.8-11.8-1-2.2-2.4-3.9-5-4.2-3.5-.6-7.1 1-9 4-1.9 3-2.9 6.6-2.7 10.1 0 3.5 0 3.4-3.4 3.4-1.2 0-1.7-.2-1.8-1.6-.4-3.6-1.4-7.2-3-10.4-2.6-5.6-7.1-4.9-10.5-2.6-.8.6-1.5 1.3-2.1 2.1-2.7 3.2-3.3 7-3.2 11 0 1.9.1 1.9-1.8 2s-1.8.1-2.1-1.8c-.3-2.8-.9-5.5-1.8-8.2-.7-2-2-3.7-3.7-5-3.2-2.4-7.7-1.7-10.1 1.4-1 1.3-1.7 2.8-2.1 4.4-.7 2.7-1 5.5-1 8.3 0 1.7 0 1.6-1.7 1.7-1.3.1-1.6-.5-1.8-1.6-.5-3.2-1.3-6.4-2.5-9.4-.8-2.2-2.2-4.1-4.1-5.5-2.8-2-4.3-1.7-6.7 1.3-1.5 1.9-2.5 4-3.1 6.4-.6 2.4-.8 4.8-.7 7.2.1 1.3-.4 1.6-1.6 1.5-1.7-.2-3.4-.3-5.1-.5-2.9-.2-3.8 1-4 4.8-.1 1.2-.1 2.3 0 3.5.2 2.4.2 4.9.2 7.3-.1 5.6.1 11.2.7 16.7.3 3.1.3 6.2.3 9.3.1 20.8.8 41.5 1.1 62.2.1 7.4-.3 14.7-.2 22.1.1 15.1.1 30.2.8 45.2.3 7.3.9 14.5 1.4 21.8.2 2.5 1.6 3.8 4.1 4.1 1.1.1 2.2.1 3.3-.1 1.2-.1 2.4-.3 3.7-.3 8.1-.3 16.3-.5 24.4-1.4 7.3-.7 14.5-.9 21.8-.6 6.3.2 12.5.5 18.8.3 8.8-.3 17.7-.6 26.5-.8 17.2-.3 34.5-.4 51.7-.6 16.3-.1 32.5-1.6 48.7-2 15.8-.4 31.5-.9 47.2-1.3 2.3-.1 4.6 0 6.9 0 .2.9-.4 1.7-.7 2.5-4 12.1-5.7 24.3-3.5 37 3.4 19.4 13.2 34.7 28.5 46.8 3.5 2.8 7.5 4.6 11.3 6.8 2 2.5 5 3 7.7 4 11.7 4.2 23.6 6.5 35.9 3.2 1-.4 2.2-.4 3.2 0 3.6 1.3 7.3 2.4 11.1 3.1 1.1.3 2.1.7 3.2.9 5.3 1.3 10.6 2.2 15.9 3 6.2.7 12.4 1.8 18.7.6 1.1-.3 2.3-.5 3.5-.5 7.5.5 14.2-2 20.5-5.5 3.1-1.8 6.5-3.4 8.3-6.8.9-1.1 1.9-2.1 2.8-3.3.5-.7 1-1 1.8-.4 1.6 1.1 3.4 1.9 4.9 3.1 7.9 6.3 16.8 10.9 26 15 9.7 4.3 19.5 7.9 30.1 8.3 1.9.1 3.7-1 4.5-2.7.6-.3.9-1.3 1-2.4zM305.3 42.8c2.4-2 4.3-1.6 5.7 1.2 1.6 3.1 2.4 6.5 2.3 10-.1 1.8-.1 1.8-1.9 1.8h-3.8v-.3h-4.8c-.6 0-1-.2-1.1-.8-.3-4.4-.2-8.7 3.6-11.9zM279 44.2c.3-1 .9-1.8 1.5-2.6 1.8-2.1 3.9-2 5.4.3 1.9 2.8 2.9 6.1 3.1 9.5.2 3.8.2 3.8-3.7 3.8h-5.8c-1 0-1.5-.3-1.6-1.4-.3-3.2.1-6.5 1.1-9.6zm-22.9-1c.2-.4.5-.7.8-1 .9-1 2.4-1.1 3.4-.3.2.2.4.4.5.6 1.2 1.6 2.1 3.5 2.6 5.5.6 2.3 1.1 4.8 1.7 7.5-3.6.2-6.9.4-10.2.5-.6 0-1-.2-1-.8-.3-4.2-.2-8.4 2.2-12zm-26.5 3.3c.2-.6.5-1.1.8-1.5 2.2-3 5-2.8 6.8.5s1.7 6.8 2 10.3c.1.9-.5.9-1.1.9h-4.3v-.1h-4.3c-1 0-1.3-.4-1.3-1.4-.1-3 .4-5.9 1.4-8.7zm-21.8-1.6c1.4-2.2 2.7-2.3 4.7-.5 2.1 1.9 2.8 4.5 3.2 7.2.2 1.1.1 2.2.3 3.3s-.4 1.5-1.4 1.4h-8.1c-.7 0-1.2-.2-1.2-1 .1-3.6.3-7.3 2.5-10.4zM184 45c1.5-2 4.3-2.4 6.3-1 .3.2.5.4.7.7 2.5 3 3 6.7 3.3 10.4.1.9-.6.8-1.2.8h-5.5v.1h-5.3c-.7 0-1.1-.3-1.1-1-.2-3.5.8-7 2.8-10zm-27.2 9.7c.1-3.1.9-6.2 2.4-8.9.3-.5.6-1 1-1.4 1.5-1.6 2.5-1.6 4 0 2.8 2.7 4.6 6.3 5 10.2.1 1.8.2 1.8-1.7 1.8H163v-.2h-4.8c-1.2 0-1.5-.5-1.4-1.5zM134.2 45c.7-1.4 2.2-2.2 3.8-2 1.7.3 3.3.8 4 2.6 1 3.1 1.5 6.4 1.5 9.7.1 1-.6 1.1-1.3 1.1h-5.1v.3h-4.6c-.7 0-1.1-.3-1-1.1.3-3.7.7-7.3 2.7-10.6zm-24.7 0c2.6-3.4 6.1-3 7.9.8 1.5 3.2 1.7 6.7 1.8 10.1 0 1-.6 1-1.3 1-1.7-.2-3.3-.2-5 0h-5.1c-.8 0-1.2-.3-1.2-1.2.1-3.8.5-7.6 2.9-10.7zm-26.4-.1c1-1.7 2.8-2.8 4.7-2.9 1.5-.2 2.9.6 3.5 1.9 1.8 3.7 2.8 7.8 2.9 11.9 0 1-.5 1.1-1.3 1.1h-5v-.2h-5.3c-.7 0-1.4 0-1.5-1-.2-3.8-.1-7.5 2-10.8zm-23.6 1c.6-.8 1.4-1.5 2.3-1.9 2.1-1 3.5-.7 4.6 1.4 1.5 3 2.4 6.1 2.9 9.4.2 1.1 0 1.7-1.4 1.7-3.6-.2-7.2-.1-10.8.1-.4-4-.2-7.6 2.3-10.8l.1.1zm-23.7 1.2c.7-1.8 1.8-3.4 3.9-3.6s3.7 1.2 4.7 3c1.6 3 2 6.4 2.4 9.8.1.7-.4.8-.9.8h-5.3v.2h-4.8c-.8 0-1.2-.3-1.2-1.2-.2-3 .2-6.1 1.2-9zm-18.7-2.7c1.1-1.3 1.3-1.3 2.6-.3.7.6 1.3 1.3 1.8 2.1 1.7 3.6 2.8 7.4 3.3 11.4-3.3.2-6.7.3-10 .1-.6 0-.9-.3-.9-.9 0-4.4.3-8.8 3.2-12.4z"></path><path fill="#fff" d="M494.3 362.4c-.3.5-.7.8-1.3.9-2.4.2-4.9.1-7.2-.4-8.1-1.1-15.7-4-23.1-7.2-9.4-4.1-18.5-8.8-26.6-15.1-1-.8-2.1-1.4-3.2-2.1-.2 0-.3-.1-.4-.3h-.1c.4-1.4 1.5-1 2.5-1 9.6.9 19.3.2 28.7-1.9 1.4-.3 3.1-.4 3.5-2.4.1-.4.3-.8.6-1 1.4-.3 1.9.9 2.5 1.7 3.8 4.9 7.9 9.5 12.3 13.8 3 2.9 6.3 5.6 9.5 8.3.8.6 1.5 1.4 2 2.3 1 1.3 1.2 3 .3 4.4z"></path><path fill="#ffd574" d="M463.4 321.4c-.4 1.4.3 2.5.8 3.8l1.2 2.7c.3.4.1.9.6 1.2.1.2.2.4.2.6.5 1 .9 2 1.3 3 .6 1.9.6 2.1-.9 2.7-1.4.5-2.9.8-4.4 1-2.8.5-5.6 1.1-8.5 1.4-6.4.7-12.9.7-19.4.1-.6-.1-1.4-.3-1.9.4-.6-.1-1.1-.4-1.5-.8-1-.9-2.4-.9-3.5-.2-6.1-.9-12.1-2.8-17.6-5.5-12.2-5.7-22-14.5-30.2-25-5.7-7.3-10.7-15-13.9-23.8-1.8-4.8-2.5-9.8-3.1-14.9-.6-6-.4-12 .7-17.9 1.1-7.7 4.8-14.8 10.5-20.1 5.1-4.7 11-5.8 17.7-3.8 7.5 2.3 14.2 6.4 20.9 10.4 11.6 7 21.5 16.1 31.4 25.3 1.3 1.3 2.5 2.7 3.6 4.3.7 1.5 1.3 3 2.1 4.4.3.6.7 1.1 1.2 1.6.6.7.8-.1 1.1-.4 1.3 3 3.1 5.6 4.3 8.6 2.4 5.6 3.9 11.5 4.5 17.6.6 6.5 1.1 13.1 2 19.6-.1 1.2.2 2.5.8 3.7z"></path><path fill="#e1f0ff" d="M297.1 340.9c7.1 3.5 14.7 5.9 22.5 7.2 7.2 1.2 14.5 1.2 21.5-1 1.1-.4 2.4-.3 3.3.4 0 1.2-.9 1.8-1.7 2.4-3.3 2.6-7.1 4.3-11.2 5.1-6.5 1.3-13 2.4-19.5 3.3-4.9.7-9.7 1.7-13.7 4.9-1.1.9-2.8 1.8-1.9 3.4s2.6 1 3.9.5c5.1-1.7 10.1-4 15.4-5.2 1.1-.3 2.3-.5 3.5-.7.6-.1 1.3-.2 1.6.4.3.8-.4 1.2-.9 1.6-.7.5-1.5.9-2.2 1.2-2.6 1.3-4.9 3-7 5-.9.9-2.3 2-1.3 3.4.9 1.3 2.3.5 3.5.1 4.9-1.8 9.2-4.7 13.6-7.4 1.4-.9 2.7-2.1 4.5-2.3.4 0 .7.2.9.6-.5 1.9-2.2 3-3.1 4.6-.6 1.1-1.9 2.6-.8 3.6s2.7-.2 3.8-1.1c1.4-1.1 2.6-2.4 3.8-3.7 6-6.2 12.5-11.9 19.6-16.8 5 1.2 10.1 2.4 15.2 3.2 1.2.2 2.5 0 3.7.7-1 1.5-2.8 1.8-4.3 2.4a42.5 42.5 0 0 0-8.1 5.1c-.7.6-2 1.3-1.2 2.4.6 1 1.7.2 2.5-.1 2.8-.9 5.5-2.1 8.1-3.5.6-.4 1.3-.7 2-1 .8-.3 1.7-1 2.3-.1s-.5 1.5-1 2.1c-.6.7-1.3 1.3-2.1 1.9-3.5 3-7 5.9-10.3 9-.9.9-2.5 2.2-1.6 3.3 1.2 1.4 2.6-.2 3.7-1 5-3.6 10-7.2 14.9-11 .7-.5 1.2-1.2 2.2-1.2.4.1.7.4.7.8-.4 2.4-2.2 3.9-3.2 6-.6 1.1-1.2 2.2-1.6 3.4-.2.6-.3 1.2.2 1.7s1.3.3 1.9 0c.8-.5 1.5-1 2.1-1.7 3.1-3.1 6.3-6.1 9.3-9.3 1.9-2 4.1-3.1 7-2.4 1.9.4 3.9.4 5.8-.1.8-.2 1.9-.4 1.9-1.4s-1.2-1-2-1c-2.8-.3-5.5-1-8.1-2.1-.8-.3-1.9-.4-2-1.6 2-.8 4-.5 6-.5 1.3 0 2.5-.1 3.8-.3 8.3-1.7 16-5.6 22.3-11.3 0 .7.3 1.5.8 2 1 1.3 1.9 2.6 2.8 3.9 4 5.9 3.1 11.7-.4 17.4-2.9 4.5-7 7.7-11.8 10.1-9.8 5-20.2 8.6-31.1 10.5-4.1.8-8.2 1.2-12.3 1.2-1.8 0-3.5.3-5.3.2-6.4-.2-12.8.1-19.2-.4-3.6-.3-7.2-.1-10.8-.7-2.6-.5-5.4-.3-8.1-.6-4.7-.4-9.4-1-14.1-1.4l-10.8-1.2c-9-.9-18.1-2-26.6-5.6-2.7-1.1-5.3-2.6-7.7-4.4-4-3.1-5.7-9.6-3.5-14.7 2.5-5.5 6.7-9.3 11.8-12.2 4.7-2.6 9.9-4.4 15.2-5.3 1 0 2-.2 2.9-.7z"></path><path fill="#ffd574" d="M404.3 153.8c-1.3-.4-2.3.4-3.2 1.1-3.6 2.5-7.3 5-11 7.3-10.4 6.6-21.9 10-33.8 12.8-2 .5-4-.3-6-.2-8.8.5-17-2-25.2-5.1-1.8-.7-3.2-2.3-5.1-2.8-1.1-.2-1.8-.8-1.3-1.9 1.3-2.9.9-5.9.5-9v-1.6c0-.8-.1-1.5-.3-2.3-.2-.8-.2-1.5 0-2.3.2-.8.7-1.4 1.4-1.8 2.1-4.7 3.2-9.8 3.2-14.9-.1-.9 0-1.9.3-2.7.8-.9.2-2.3 1.1-3.1.5-2.3 1.1-4.6 1.5-6.9.7-3.5 1.8-6.9 3.3-10.1 2.6-6.4 7.6-9.9 13.7-12.4 5.8-2.4 11.6-1.8 17.3.3.9.3 1.7.7 2.6 1 1.7.7 3.6-.2 4.2-1.9.2-.5.3-1 .2-1.5 0-.3 0-.7-.1-1 0-.7-.2-1.5.6-1.7s1.3.3 1.8.8c.9 1 1.7 2.2 2.1 3.5.2.4 0 1 .6 1.4.8-.1 1.4-.5 2-1 1.5-.9 3.2-1.5 5-1.8.6-.1 1.2 0 1.7.3 1 .5 1.2 1.1.4 2-.7.7-1.5 1.4-2.3 2-.6.4-1.1.9-1.5 1.4-.6.5-.7 1.5-.2 2.1l.3.3c.7.6 1.3 1.3 2 2 3 2.8 5.5 6.2 7.3 10 3.9 8.3 8.8 16 13 24.1.7 1.1 1.6 2.2 2.6 3.1 1.6 1.8 1.5 2.1-.8 3.3 1.1 2.3 2.2 4.6 2.1 7.2z"></path><path fill="#010101" d="m242.1 333.7-2.8-.9c-11.3-3.5-20.9-9.8-29.5-17.8-7.9-7.2-15.1-15.1-21.4-23.6-.4-.5-.7-.9-1-1.5-.4-.6-.3-1.4.2-1.9s1.4-.4 1.9.1c1 .9 1.9 1.9 2.7 3 2.7 3.4 5.4 6.8 8.3 9.9 6.5 7.3 13.8 14 21.7 19.8 6.1 4.4 12.9 7.3 20 9.7.3.1.7.2 1 .3.8.3 1.3.8 1.1 1.7s-1 1.2-2.2 1.2z"></path><path fill="#020202" d="M306.5 11.1c1 .1 2 .2 3.1.4 7.3 1.6 14.3 4.2 20.8 7.9.7.4 1.3.8 1.9 1.3.7.4.9 1.3.5 2-.5.8-1.3.7-2 .4-.8-.3-1.5-.7-2.3-1.1a78.3 78.3 0 0 0-18.1-7.1c-2.1-.6-4.3-1.2-6.5-.5-.7.3-1.5 0-1.9-.7-.1-.1-.1-.2-.1-.3-.2-.9.4-1.4 1.2-1.7 1-.5 2.2-.7 3.4-.6z"></path><path fill="#040404" d="M401.6 84.1c.1 3.1.3 6.3.5 9.4.1 1.3 0 2.7-.3 4-.1.7-.7 1.2-1.4 1.3-.9 0-1.3-.6-1.5-1.4v-.8c-.1-7.8-.6-15.6-.1-23.4-.1-.7.1-1.4.4-2 .3-.6.9-.9 1.5-.8.6.1 1.1.6 1.1 1.2v1.8c-.3 3.5-.3 7.1-.2 10.7zM407.1 79.9c.1-2.8.3-6.1.4-9.4.1-1.7.5-2.5 1.5-2.5s1.5.8 1.5 2.5c-.2 6.4-.3 12.8-.9 19.2 0 .6-.1 1.2-.3 1.8-.2.7-.8 1.2-1.5 1.1-.7-.1-1.3-.6-1.3-1.4v-2.5c.2-2.8.4-5.6.6-8.8z"></path><path fill="#030202" d="m323.3 0 1.5.6c6 3.2 10.6 8 14.7 13.4.5.7.8 1.6.1 2.3-.7.7-1.8.4-2.5-.4-.5-.5-1-1.2-1.5-1.8C332 9.8 328.1 5.7 323 3c-.4-.2-.7-.4-1-.7-.4-.4-.5-.9-.3-1.4.3-.6.9-1 1.6-.9z"></path><path fill="#030303" d="M204.9 286.4c.8.1 1.6.6 2 1.4 1.5 1.9 2.9 3.8 4.4 5.6 1.9 2.5 4.1 4.8 6.4 6.8.7.6 1.3 1.3.6 2.1s-1.6.7-2.5.1c-.6-.4-1.1-.8-1.6-1.3-3.7-3.6-7.1-7.5-10.1-11.7-.4-.4-.7-1-.7-1.6-.1-.7.4-1.3 1.1-1.4h.4z"></path><path fill="#161212" d="M410.5 101.7c-.1 1-1 1.7-2 1.7-.7 0-1.3-.6-1.2-1.3 0-.9.8-1.7 1.7-1.7h.1c.7-.1 1.4.5 1.4 1.3z"></path><path fill="#ffd574" d="M325 127.3c-.1 1.1-.3 2.3-.5 3.4-.2.6-.3-.2-.5-.3-.1-2.8.1-5.6.5-8.3 0 1.1.1 2.3.1 3.4 0 .6-.2 1.3.4 1.8z"></path><path fill="#161010" d="M401.7 104.4c.7 0 1.2.6 1.2 1.3.1.7-.4 1.3-1.1 1.3h-.2c-.7.1-1.3-.4-1.4-1.2v-.2c.1-.7.7-1.2 1.5-1.2z"></path><path fill="#fff" d="m319.6 149.6-.1 2.5v5.5c.5 3.2-.3 6.3-1.1 9.4-1.1.8-1.4 2.3-2.4 3.2-1.8 1-3.3.1-4.8-.8-4.6-2.7-8.7-6.2-13-9.4-5.8-4.4-11.7-8.7-17.5-13.1-1-.7-2.6-1.2-1.8-3 1.4-.8 3.4.3 4.8-1.6-3.1-1.1-6.2-.1-9.1-.7-2.7-.5-4.8-2.1-7-3.4-5-2.9-9.7-6.5-15.4-8.1-6-1.8-12.3-2.4-18.5-1.7-1.6.2-3.2.6-4.6-.6-.9-2.7-.5-5.3-.2-8 .3-3.3.3-6.6.2-9.8.1-.5-.2-1-.6-1.2-.9 1.2-.9 2.6-.9 4 .1 4.5-.5 8.9-.8 13.4 0 .9-.3 1.9-.6 2.7-2 1.3-4.1 2.5-6.7 1.4-.3-.7-.2-1.5.1-2.2 1.9-5.9-.1-10.9-3.7-15.3-6.6-7.8-15.4-11.4-25.3-12.6-5.8-.8-11.7-.1-17.1 2.1-2.5 1-4.8 2.6-6.6 4.6-4.3 5-4.7 12.2-1.1 17.7 3.7 6 9.2 9.6 15.4 12.2 4.4 1.9 9.2 3 14 3.2.8-.1 1.5.1 2.2.6-.4 3-2.8 3.7-5.2 4.4-8.8 0-17.6.5-26.4-.3-2.9-.3-5.8-.1-8.6-.1-1.3 0-2.5-.1-3.8-.3-2-.3-3-1.4-3-3.4.1-7.6-.6-15-1-22.6-.2-3.7-.9-7.4-1.2-11.1 0-.5-.1-1-.9-1.3-.5 1.2-.6 2.4-.2 3.6.9 6.7.9 13.5 1.3 20.3.3 3.4.5 6.8.5 10.1-.1 3.5-.6 4.1-4 4.1-18.3.1-36.6 1-54.9.5-5.7-.2-11.3-.4-17-.5-2.9 0-3.8-.9-4-3.8v-1.5c.3-10.2-.8-20.3-.5-30.5.1-1.1-.1-2.2-.7-3.1-1 1.2-.7 2.3-.8 3.3-.4 9.9.5 19.8.5 29.7v2.5c-.2 2.6-.7 3.2-3.2 3.3-8.7.5-17.4 1.3-26.1 1.1-3.4.1-6.7.4-10 .9.8.8 1.7.5 2.5.5 10.3.2 20.7-.3 31-.5h2.5c3.1.1 3.7.7 3.8 3.8.1 5 0 10 0 15v22.9c0 3.5-.5 3.9-3.9 4.2-8.8.8-17.5 1.7-26.3 1.5-.8-.1-1.6.1-2.4.5.9 1.2 2.1.9 3.2.9 8.3.3 16.6-.5 24.8-1.2.6-.1 1.2-.2 1.8-.2 2.3 0 3.2.6 3.2 2.9 0 4.1.6 8.1.6 12.2v26.7c0 1.1-.3 2.4.6 3.4.8 0 .8-.6.8-1.1.3-5.5 1.1-11 .2-16.5-.2-2.4-.3-4.9-.1-7.4 0-5.4-.2-10.8-.5-16.2-.2-4 .3-4.2 4.2-4.6 11.2-1.1 22.5-1.6 33.7-2.4 12.3-.9 24.7-.7 37.1-.6 2.5 0 3.2.7 3.3 3.2.2 4.8.1 9.7-.2 14.5-.4 4.7-.4 9.5 0 14.2-.1 1.3.3 2.5 1 3.5.8-.9 1-2.1.7-3.3-.9-6.4.2-12.7 0-19-.1-3.5.5-6.9.6-10.4.1-1.8 1-2.5 2.8-2.5 11.3.2 22.7.9 34 .8.8 0 1.7 0 2.5.3 1 .4.9 1.3.8 2.1-.1 1.7-.2 3.4-.5 5.1-.2 1.1-.2 2.2.1 3.3.2.7.5 1.5 1.4 1.6s1.4-.6 1.8-1.2c1.5-2.5 1.9-5.4 2.9-8.1.4-1 .4-2.2 1.6-2.7.7-.2 1.4-.3 2.1-.2 2.1.3 2.1 1.9 2.1 3.4-.1 4.6.2 9.2 1.1 13.6.2 1.3.6 2.5 1.2 3.6.2.5.7.8 1.2.8.8 0 .9-.7 1-1.2.3-1.6.5-3.2.6-4.8.1-3.7.6-7.4 1-11.1.5-3.9.5-3.9 4.4-4.5l1.2-.3c2.9-.2 5.8-.6 8.7.2.5.3.8.9.9 1.4.6 3.9 2 7.6 2.6 11.6.7 5.7.4 11.4.6 17.1 0 1.1-.1 3.1 1.3 3 1.2-.1.6-2 .7-3.1.1-.4 0-.8 0-1.3.1-1.8 0-3.6.1-5.3 0-.7.1-1.5.8-1.7s1 .5 1.4 1c.4.6.8 1.1 1.3 1.6s1.1 1 1.8.7.8-1.1.7-1.8c-.4-2.6-.4-5.2-.7-7.8-.4-4.6-.6-9.3.3-13.9.1-.4.2-.8.5-1.2.5-.5 1.3-.7 2-.4 1.7.9 1.3 2.6 1.4 4 .4 7.3 1.3 14.5 4.2 21.3.6 1.4 1.3 2.8 2.2 4 .3.4.7.9 1.2.7.8-.2.7-.9.6-1.5-.3-1.7-.4-3.4-.6-5-.2-.7-.2-1.3-.2-2 0-.8-.2-2 .8-2.2s1.3.9 1.6 1.7c1.1 2.8 2.5 5.4 4.2 7.8.6.8 1.1 1.9 2.5 2 .5-1.3-.6-2.5-.3-3.7.1-.4.1-.9.6-1.1s.8.2 1.1.5c.5.6.9 1.2 1.3 1.9 2.6 4.2 5.9 7.8 9.9 10.8.9.7 1.9 1.3 1.6 2.6-1.7 3.7-3.7 7.2-5.2 11-.4 1.2-1.3 1.1-2.2 1.1-7.2.2-14.4.4-21.6.7s-14.2.2-21.3.5c-13.4.5-26.7.8-40.1 1.7-8.9.6-17.9.5-26.9.8-17.1.4-34.2.2-51.3.6-13 .3-25.9 1.1-38.8.4-9.9-.6-19.8.3-29.7 1.2-4.8.4-9.6.6-14.5.7-2.2 0-4.4.2-6.6.4-2.7.4-3.1-.1-3.2-2.8-.3-7.5-1.3-15-1.4-22.6-.3-18.7-1.1-37.4-.3-56.2.2-4-.3-8-.3-11.9.1-16.6-.8-33.2-.8-49.8 0-3.3-.2-6.6-.2-9.9 0-1.6 0-1.6 1.7-1.6 6.3 0 12.7.3 19 .1 4.9-.2 9.8-.2 14.7-.6 2.9-.2 5.8.2 8.6.3 7.5.1 15.1.1 22.6 0 9-.2 18-.1 26.9-.3 9.8-.2 19.7-.2 29.5-.6 11.3-.5 22.7-.6 34-1.1 16.4-.8 32.8-1.2 49.3-.7 12.5.4 24.9.3 37.3-.3 8.5-.4 16.9-1.1 25.4-1.5 8.8-.3 17.6-.8 26.4-.4 4.3.2 8.6.7 12.9 1.1 2.4.2 4.7.3 7.1.2 2 0 2.1 0 2 1.9-.3 8.5 0 16.9-.6 25.4-.5 8.5-.9 16.7-1.4 25.1-.4 1.3.3 2.9-.2 4.4z"></path><path fill="#fff" d="M447.1 266.1c-.9-.5-1.7-1.2-2.3-2-4.2-4.2-8.7-8.3-13.4-12-3.7-3-6.9-6.5-10.9-9.1-9.1-6-18.1-12.3-28.5-15.8-1.7-.6-3.4-1-5.2-1.3-5.8-.7-10.3 1.8-14 5.7-5.1 5.3-8.3 12.1-9.2 19.4-.6 3.6-.9 7.2-1 10.8-.1 11.1 2.9 22.1 8.5 31.7 3.7 6.1 7.9 11.8 12.4 17.3 5.4 6.3 11.7 11.8 18.7 16.3 6.8 4.5 14.3 7.2 22.2 9.2 1 .1 2 .4 2.8 1-5.1 7.1-12.4 11.1-20.5 13.7-6.5 2.1-13.3 2.5-20.1 2.3-13-.5-25.7-3.1-38.1-6.7-2-.6-3.8-1.9-5.7-2.1s-3.8 1.2-5.8 1.5c-7.3 1.2-14.7.8-21.9-1-10.4-2.4-20-6.5-28.4-13.1-14.9-11.7-24.3-26.8-27.3-45.7-1.6-10.1-.9-20.4 2-30.1 4-13.8 10.3-26.7 18.9-38.3 3-4 6.3-7.8 9.8-11.3 7.3-7.6 14-15.9 20.1-24.6 1.3-1.8 2.6-3.6 4-5.4l3.2 2.2c6.5 4.4 14 7.2 21.9 8.1l1 .1c1.6.2 3.1.6 3.9 2.3.1.2.3.4.5.6 2.7 1.6 2 3.7 1 6-6.7 15.2-13.3 30.5-22 44.8-3.3 5.5-3.2 6 .1 11.5 2.3 3.7 4.2 7.5 5.8 11.6 1.5 3.8 2.9 4.1 5.6.8 3.8-4.5 7.9-8.6 12.5-12.3 1.9-1.5 2.9-3.8 2.6-6.2-.8-10.9-.6-21.8.6-32.7.7-5.7 1.1-11.4 2.2-17.1.2-1.7 1-3.2 2.2-4.4 1.9-1.9 3.5-4.1 4.8-6.6.4-1 1.4-1.7 2.5-1.7 8.8-.8 17.3-3.2 25.3-7 3.4-1.6 6.7-3.6 9.7-6l5.6-4.5c.5 3.2.8 6.2 1.5 9.1 1.7 6.4 3.8 12.6 6.3 18.8 5.2 13 10.1 26 17.1 38.2 5.1 9 10.3 17.9 15.4 26.9 1.2 2.3 2.8 4.5 3.6 7.1zM10.9 60.9c.6 3.6 1.5 7.2 2.8 10.6.3.8.7 1.5 1.1 2.3.4.7 1.2 1 2 .7.1 0 .1-.1.2-.1.8-.5.7-1.3.3-2-1.7-3.6-2.7-7.4-3.2-11.3 5.9.1 11.7 0 17.5-.4.7 4.1 2.1 8 4.2 11.6.4.7.8 1.3 1.3 1.9.5.5 1.3.6 1.9.1.5-.4.7-1 .4-1.6-.2-.5-.6-1-.8-1.6-1.8-3.2-3.1-6.7-3.6-10.4l9.7-.4c2.8-.1 5.6-.1 8.4-.4 1.3-.1 1.5.4 1.8 1.4.9 3.7 2.2 7.3 3.8 10.7.3.6.6 1.2 1 1.8.4.7 1.2.9 1.9.6 0 0 .1 0 .1-.1.7-.3.9-1.2.6-1.8 0-.1-.1-.1-.1-.2-1.2-2.5-2.3-5.1-3.1-7.7-.5-1.5-.9-3.1-1.3-4.6.7-.7 1.4-.5 2-.5h17.3c1.2 0 1.5.4 1.8 1.5.6 3.5 1.7 6.9 3.3 10.1.4.9.9 1.6 1.5 2.3.6.7 1.5.8 2.2.2 0 0 .1 0 .1-.1.7-.6.4-1.3-.1-2-2.5-3.5-3.2-7.6-4.1-11.8h6.7c4.6.1 9.1.3 13.7.3 1.5 0 2.1.3 2.3 1.8.5 3.1 1.4 6.1 2.8 9 .4.9.9 1.8 1.5 2.6.5.7 1.3 1.2 2.2.5.6-.5.8-1.3.3-2l-.1-.1c-2.2-3.3-2.8-7-3.7-10.7-.1-.4-.1-.8.1-1.2 2.8.1 5.7-.4 8.7-.1 3.5.2 6.9.2 10.4 0 2.1 0 2.1 0 2.4 2 .5 3.8 2 7.4 3.3 10.9.2.5.5.9.8 1.2.6.4 1.4.3 1.8-.2.2-.2.3-.4.3-.7 0-.8-.2-1.5-.5-2.2-1.2-3-2-6.1-2.5-9.3-.2-1.7-.2-1.8 1.4-1.9 6.3-.2 12.5-.4 18.8-.7.9-.2 1.8.4 2 1.3v.3c.5 2.7 1.1 5.3 1.7 7.9.3 1.5.9 2.9 1.8 4.2.6.9 1.4 1.4 2.3.8s.6-1.5.2-2.3c-1.9-3.8-2.2-7.9-3.1-12 2-.2 4-.3 6.1-.1 4.6.3 9.1.3 13.7.1 1.3-.1 1.8.3 1.9 1.6.3 3.3.9 6.5 1.9 9.7l.9 2.4c.2.7 1 1.1 1.8.9h.1c.7-.2 1.1-1 .9-1.7 0-.1-.1-.1-.1-.2-.7-2-1.3-4-1.6-6.1-.3-1.8-.4-3.5-.8-5.3-.2-1.2.3-1.4 1.4-1.5 5.9-.2 11.9-.1 17.8 0 1.3 0 1.5.6 1.6 1.7.6 3.9 1.5 7.8 2.9 11.6.6 1.8 1.3 2.5 2.2 2.2s1.2-1.3.6-3c-1.4-3.9-2.3-7.9-2.7-11.9.3-.1.7-.2 1-.2h16.3c2.1 0 2.1.1 2.6 2.1.6 3.8 1.7 7.4 3.1 11l.9 1.8c.4.6 1.2.8 1.8.5.6-.3 1-1 .7-1.6V73c-.2-.7-.5-1.3-.8-1.9-1.4-3.7-2.3-7.6-2.8-11.5 1.2-.2 2.5-.3 3.7-.1 5.6.2 11.2-.1 16.8-.4 2.3-.1 2.3-.1 2.8 2.1.8 3.3 1.8 6.5 3 9.7.1.4.3.8.5 1.2.7 1.6 1.5 2.1 2.4 1.6 1.3-.7.7-1.7.4-2.7-1.4-3.6-2.6-7.4-3.4-11.2 0-.3-.1-.6-.1-.8 3.9-.4 7.8-.6 11.7-.7 2.6 0 5.3 0 7.9-.1.8-.1 1.6.4 1.7 1.2v.2c.8 3.6 1.9 7 3.4 10.3.3.8.8 1.5 1.3 2.1.4.5 1.1.5 1.6.2s.8-.9.6-1.5c-.2-.6-.5-1.1-.7-1.6-1.5-3.4-2.6-7-3.4-10.7 1.8-.2 3.6-.3 5.5-.2 4.3 0 8.6.1 13 0 1.3 0 1.9.3 2.2 1.7.9 3.9 2.4 7.6 4.6 10.9.4.8 1 1.6 1.8 2.1.6.5 1.4.4 1.9-.1.4-.4.5-1.1.2-1.6-.2-.4-.6-.8-.9-1.3-2.3-3.5-3.9-7.3-4.6-11.4.7-.5 1.5-.3 2.2-.3 4.9.1 9.8.6 14.7.4 1.2-.1 1.6.3 1.6 1.6-.2 6.2 0 12.4.2 18.5.1 2.8.3 5.6.5 8.4.1 1.3-.2 1.8-1.6 1.8-3.7.1-7.5-.1-11.1-.5-6.2-1-12.5-.9-18.7-.9-14.5.1-28.9 1.2-43.4 2-11.3.6-22.5.6-33.8.2-13.8-.4-27.6-.5-41.4.2-11.2.6-22.4.3-33.5 1.1-9.6.6-19.1.3-28.7.8-16.4 1.2-32.3.7-48.2 1.2-8.2.3-16.4-.6-24.6-.1-10.2.7-20.3.5-30.5.3-2.2 0-2.1.3-2.3-2.3-.6-6.9-.9-13.8-.7-20.8 0-2.7-.2-5.4-.1-8.1 0-1.6.1-1.6 1.7-1.5 2 .2 3.9.3 5.9.4z"></path><path fill="#ffd574" d="M219.7 129.9c.6.6 1.2.1 1.8-.1 1.5-.3 3-.7 4.5-1.1.9-.9 2.1-1.2 3.3-.9 3.3.1 6.5-.6 9.8-.6 5.4.1 10.8 1 15.9 2.8 3.5 1.2 6.4 3.4 9.5 5.2 2.4 1.4 4.8 2.9 7.1 4.4 1 .6 2.1.7 3 1.2 1 1.4 3 1.7 3.9 3.3 3.3 2.6 6.6 5.2 10 7.7 6.6 5 13.2 10 19.8 14.9 2.2 1.6 4.5 3.4 7.5 3.3-.3.6-.6 1.2-1 1.7-8.6 11.5-16.7 23.4-26.9 33.7-7 6.9-12.9 14.9-17.5 23.5-.5 1-1.1 2-1.7 3.1-.1-.7-.6-1.2-1.2-1.6-4.7-3.2-8.6-7.5-11.4-12.5-.3-.5-.7-1-1.2-1.7-.3.8-.3 1.8.1 2.6.2.6.5 1.3.7 1.9.2.5.1 1.1-.3 1.4-.4.3-1 .3-1.4-.1-.7-.6-1.4-1.3-2-2-1.9-2.4-3.4-5.1-4.4-7.9-.2-.9-.7-1.7-1.3-2.4-.3 2.9.5 5.4.7 8 .1.8.2 1.5.3 2.3.1.6-.2 1.2-.7 1.5-.6.2-1.2 0-1.6-.4-.7-.7-1.3-1.6-1.8-2.5-2.4-4.5-3.9-9.4-4.6-14.4-.6-3.9-1-7.9-1.1-11.8 0-.5-.2-1-.3-1.5-.3-1.1-.5-2.1-.6-3.2 0-.4 0-.7.1-1.1.5-2 .2-4 .6-5.9-.3.2-.1.6-.2 1 0 2-.8 3.9-.7 5.9-.2 1.1-.7 2.2-1.3 3.1-.5 3.7-.6 7.4-.4 11.1.1 3.6.3 7.2.8 10.8.1.7.1 1.3.1 2-.1 1.9-1.2 2.5-2.9 1.5-.9-.7-1.6-1.5-2.1-2.5-.3-.4-.3-1-1.2-1.2v6.6c-1.3-.1-1.1-1.2-1.1-1.9.6-4.9-1.2-9.3-2.9-13.7-.1-1.9-.9-3.7-1.4-5.6-.6-2.4-1-4.7-1.3-7.1-1-1.8-3-2.7-5-2.3-.9.2-1.8 0-2.6-.6.2-1.7 1.6-1.2 2.5-1.3 3.7-.2 3.5-.2 3.2-4-.7-7.6-1.8-15.3-.8-22.8-4.3 8.7-8 17.8-9.3 27.6-.4 1.6-.4 2.8 1.7 2.8.4 0 .8.3.9.7-.6.5-1.3.2-1.9.3-1.8.1-2.1.3-2.3 2-.4 3.3-.9 6.7-1 10-.1 2.6-.5 5.2-.6 7.8 0 1-.2 2.2-1.4 2.4-1.1.1-2.2-.7-2.5-1.8-.5-1.2-.9-2.5-1.1-3.9-.9-4.8-1.2-9.7-1-14.6.1-1 .1-1.9-1.2-2 0-1.3 1.6-2.2 1.1-3.7 1-6.7 2.7-13.3 5.3-19.6.3-.9.7-1.8 1.2-2.6-.4.7-.8 1.3-1.1 2.1-2.5 6.8-5.4 13.4-7.3 20.4-.4 1.2-.6 2.5-1.6 3.4-.9 2.6-1.8 5.1-2.5 7.7-.4 1.5-1 2.9-1.9 4.1-1.2 1.7-2.9 1.4-3.7-.5-.5-1.2-.7-2.5-.5-3.7l.9-7.5c-.6-.6-.6-1.7 0-2.3-4 .3-8.2.2-12.3.1-.7 0-1.3-.2-1.9-.6 0-1.6 1.4-1.1 2.2-1.2 3.2-.1 6.4-.1 9.6 0 1.3 0 2.3-.3 2.6-1.8 2-8 5.2-15.7 9.5-22.8-3.6 1.6-6.6 3.4-9.9 4.6-1.7.7-3.5 1.3-5.3 1.6-4 .5-6.4-2-5.6-5.9.9-4.3 3.5-7.7 6-11.1 1.1-1.4 2.2-2.8 3.4-4.1 1.3-1.3 2.6-2.4 4.1-3.4 1.9-.7 3.5-1.9 4.7-3.6 1.4-1.9 3.6-2.7 5.4-4.1 3.8-2.4 8.1-3.8 12.1-5.9 1.9.3 3.3-.8 4.9-.7zM331.2 363.6l-10.8 6.6c-2.5 1.5-5.2 2.8-8 3.8-.4.2-.8.3-1.2.3-1 0-2.2.3-2.6-.9-.5-1-.3-2.3.5-3.1 1.7-1.8 3.5-3.4 5.6-4.8 1.7-1 3.4-2 5.1-2.8.4-.2.8-.3 1-1-2.8.4-5.5 1-8.2 1.8-3.8 1-7.3 2.7-11 4-1 .4-2.1.7-3.2.7-1.3 0-2.5-.2-2.9-1.6s.4-2.2 1.1-2.9c1.4-1.3 2.9-2.3 4.6-3.1 3.4-1.6 7.1-2.6 10.9-3 3.9-.4 7.8-1.3 11.7-1.8 2.4-.3 4.8-.8 7.2-1.4 5.1-1.1 9.8-3.1 13.5-7l10.6 3c-.1.7-.5 1.3-1.1 1.6-7.8 5.1-14.3 11.7-20.8 18.4-.9 1-2 1.8-3.2 2.4-.5.3-1.1.4-1.7.4-1.3 0-1.8-.7-1.5-2 .2-1.1.7-2.1 1.3-3 1-1.6 2.2-3 3.6-4.2.2-.3.4-.7.7-.9.3-.1 0-.3 0-.2-.2.7-.9.5-1.2.7zM393.1 355c3.3 1.7 6.9 2.7 10.6 3.1 1 .1 2.5 0 2.7 1.4.2 1.6-1.2 1.8-2.3 2.2-2.3.8-4.7.8-7 .2-1.9-.5-3.9 0-5.3 1.5l-1.4 1.4-9.1 9.1c-.7.8-1.6 1.5-2.7 1.8-.7.3-1.5.2-2.2-.3-.7-.6-.5-1.4-.3-2.1.7-2.4 2.2-4.4 3.4-6.5.6-1.1 1.3-2.1 2-3.2.1-.5.4-1 .8-1.4.1-.1.2-.2.3-.4-.1.1-.2.3-.3.4-.4.4-.8.6-1.3.8-5.1 4.3-10.7 7.9-16 12-.9.6-1.8 1.2-2.8 1.7-.9.5-2 1-2.8 0-.7-.9-.1-1.7.4-2.5 1.3-1.7 2.7-3.2 4.4-4.5 3.4-2.9 6.7-5.9 10.1-8.8.3-.3.6-.6.9-1-.9-.3-1.4.2-2 .5-3.1 1.7-6.4 3.1-9.7 4.3-.7.2-1.4.5-2.1.8-.7.3-1.6.1-2-.5-.4-.7-.3-1.6.3-2.1.8-.9 1.7-1.6 2.6-2.4 3.6-2.5 7.5-4.6 11.6-6 2.4-.3 4.7.5 7 .6 4.1.3 8.1.3 12.2-.1z"></path><path fill="#fff" d="M402.2 156.6c.7 2.3.5 4.2.7 6.1.1.7-.4 1.1-.8 1.5-9.6 8.7-21.5 14.4-34.2 16.5-2.1.4-4.2.5-6.3.9-1.2.4-2.6-.1-3.4-1.1-.8-1-1.8-1.8-2.3-3.4 16.9-2.9 32.8-9.9 46.3-20.5zM349.8 177.3c-2.1 2.3-4.2 4.5-6.1 6.9-.5.6-1.2.9-2 .7-8.9-.8-17.4-4-24.6-9.2-1.4-1.1-1.5-1.1-.4-2.5.8-1.1 1.7-2.1 2.5-3.1.4-.6 1.2-.8 1.8-.5.1 0 .2.1.2.2 5.3 3.7 11.5 4.8 17.5 6.4 3.6.7 7.3 1.1 11.1 1.1z"></path><path fill="#fefefe" d="M323.9 244.8c1.7-2.9 3.2-5.4 4.6-8 .6-1.1 1.3-.8 2.1-.6 3.2.7 6.4 1.5 9.6 2.2 2 .4 4 .8 6 1.1.9 0 1.6.7 1.6 1.6v.3c-.1 2 .5 4 0 6.2-7.8-1.3-15.6-2.1-23.9-2.8zM346.6 250.1c-2.5 2.3-4.6 4.2-6.7 6.2-.4.5-1 .7-1.6.6-3.1-.7-6.3-1.3-9.4-1.9-.5-.1-1-.1-1.3-.7l-4.1-6.9c8 .5 15.3 1.5 23.1 2.7zM347.5 236.9c-5.8-.8-11.3-2-17.1-3.3 1.1-2.2 2.2-4.3 3.3-6.3.3-.6.7-.6 1.3-.5 3.8.7 7.7 1.1 11.4 2.1.8.2 1.1.5 1.1 1.4v6.6zM353.3 177.2c.8 2.1 2.2 4 4 5.4 1 .9 1 1.5.3 2.6-1.4 2.3-3.1 4.4-4.9 6.4-.8.9-1.6 1.1-2.6.2-1.5-1.4-3.2-2.4-4.5-4.1-.6-.8-.9-1.4 0-2.4 2.3-2.9 5-5.4 7.7-8.1z"></path><path fill="#fff" d="M335.4 224.3v-.4c1.8-4.6 1.8-4.6 6.9-3.7l3.5.6c2 .4 2 .4 2 2.6v.8c-.1 2.3-.1 2.2-2.4 1.8-3.3-.6-6.7-1.1-10-1.7zM338.6 217c1-2.1 1.8-4 2.7-5.9.2-.5.5-.8 1.1-.6.4.1.8.1 1.2.2 1.6.4 3.9.2 4.7 1.4.9 1.4 0 3.6-.1 5.4 0 .8-.4 1.1-1.3 1-2.6-.6-5.3-.9-8.3-1.5zM342.7 208c.8-1.8 1.5-3.4 2.2-5.1.3-.8.8-.9 1.6-.8 3.2.5 3.3.5 3 3.8s-.3 3.4-3.6 2.7l-3.2-.6zM332.4 264.3l-2.8-6.5c2.6 0 4.8.8 7.5 1.2l-4.7 5.3zM346.4 199.6c.7-1.9 1.5-3.9 2.2-5.8 2.6.9 2.7.5 2.1 3.1 0 .2-.1.3-.1.5-.6 3.2-.6 3.2-4.2 2.2z"></path><path fill="#1c1a14" d="m318.4 166.9.6-9.6c.6-.3-.4-1.6.9-1.5.6 3.3 1 6.6-.8 9.8-.6 1.1.8.8.9 1.3h-1.6z"></path><path fill="#6e705c" d="M319.6 149.6c-.2-1.5-.1-3.1.3-4.5.5.9-.3 2.1.5 3 0 .5-.3 1.1-.8 1.5z"></path><path fill="#ffd574" d="M432.4 338.2c.2-.1.4 0 .4.3-.1.1-.3 0-.4-.3 0 .1 0 .1 0 0z"></path><path fill="#e9ecdd" d="M467.4 332.6c-.8-.8-1.3-1.9-1.5-3 .1-.1.3-.2.5 0 .7.7 1.2 1.6 1.6 2.5l-.6.5z"></path><path fill="#c7d0bc" d="M466 329c-.6-.2-.6-.7-.6-1.2.4.3.6.8.6 1.2zM466.4 329.6h-.5c0-.2 0-.4.1-.6.2.1.4.3.4.6z"></path><path fill="#010000" d="M432.2 303.2c1.9 2.3 3.9 4.4 6 6.5 2.6 2.6 5.3 5.3 7.7 8.1.6.7 1.2 1.4 1.6 2.3.8 1.6 0 2.7-1.8 2.5-1.1-.2-2.1-.5-3.1-1.1-3.4-1.6-6.8-3.5-10-5.4-4.2-2.4-8.3-4.8-12.5-7.3-.5-.4-1.3-.2-1.8-.7-.3-.1-.5-.3-.7-.5 0-.1-.2-.2-.3-.2-.3.1-.2.4-.1 0s.5.2.2.1c.3.3.5.5.8.7.4.3.7.7.7 1.2 2.6 2.8 5.5 5.3 8.6 7.4 5.1 3.5 10.4 6.6 16.1 9.1.7.3 1.4.6 2 1 .7.3 1 1 .8 1.7-.2.7-.9.8-1.4.8-1.3-.1-2.7-.2-4-.5-11-2.2-21-6.9-30.5-12.7-4-2.4-7.8-5.1-11.6-7.7-.7-.5-2-1-1.3-2.1.8-1.3 1.6 0 2.3.4 7.4 4.8 14.7 9.9 22.9 13.6 3.6 1.8 7.4 3.3 11.3 4.4.4.1.8 0 1.2.1s1 .3 1.4.5l.1.1c.1 0 .2 0 .2-.1-.3-.2-.6-.3-.9-.4-.5-.2-.9-.5-1.2-.9-3.4-2.1-6.9-4.2-10.2-6.6-2.6-2-5.1-4.1-7.4-6.5-1.1-1.1-2.1-2.3-3-3.5-1.3-1.7-1.5-2.8-.7-3.4 1.1-.9 2.3-.3 3.3.3 1.6.8 3.1 1.7 4.6 2.6 7.2 4.4 14.5 8.7 22 12.5.6.3.7 0 .5-.5-3.6-4.1-7.6-7.9-11.4-11.8-1.6-1.5-3-3.2-4.3-5-.4-.6-.8-1.3-.3-2.1s1.4-.8 2.3-.5c1.8.5 3.4 1.3 5 2.3 5 3.1 9.6 6.8 13.7 11.1.3.2.5.3.8.5v.2l.2-.1c-.2-.2-.3-.4-.2-.6-2.7-5-5.5-10.1-8.2-15.1-1.2-2.2-2.3-4.5-3.4-6.8-.3-.6-.6-1.2-.8-1.9-.2-.7-.3-1.5.4-2.1.7-.5 1.6-.4 2.2.1.9.5 1.7 1.1 2.4 1.8 2.3 2.1 4.5 4.3 6.5 6.7.3.4.7.7 1.1 1.1.3.1.5.3.7.5v.2l.2-.1c-.1-.2-.2-.4-.2-.6-2.2-5-4.9-9.8-8-14.3-.5-.7-1-1.4-1.3-2.2-.2-.4 0-.9.3-1.1.4-.3.8-.2 1.2.1.4.4.8.8 1.2 1.3 4.5 6.3 8.2 13.2 11 20.5.3.7.5 1.4.6 2.2.1.6-.2 1.2-.7 1.5-.5.3-1.2.2-1.6-.3-.8-.8-1.5-1.6-2.2-2.5-2.9-3.8-6.1-7.4-9.6-10.8-.5-.2-.8-.1-.5.5 3.6 7.3 7.6 14.4 11.5 21.5 1 1.7 1.8 3.4 2.7 5.2.4.8.9 1.8 0 2.5s-1.9-.1-2.6-.8-1.6-1.7-2.4-2.6c-4.6-5.2-9.9-9.8-15.8-13.5-.4-.3-.9-.4-1.4-.7-.4-.3-.7-.5-.9-.1z"></path><path fill="#040302" d="M413.1 297.5c-11.8-.6-23-3.4-33-10-.6-.4-1.1-.8-1.6-1.3-.3-.3-.3-.8 0-1.2.3-.4.8-.4 1.1-.2.4.2.9.5 1.3.8 10.6 6.6 22.9 10 35.4 9.5h1c.7 0 1.5.1 1.5 1s-.8.9-1.4 1.1c-1.3.3-2.8.4-4.3.3zM417.1 292.6c-9.5-.9-18.8-3.8-27.1-8.6-.2-.1-.4-.3-.6-.4-.4-.3-.8-.7-.5-1.3s.9-.6 1.5-.4c.5.2.9.5 1.3.7 7.4 4 15.5 6.5 23.8 7.5 1.7.2 3.4.1 5.1.2.6 0 1.3.1 1.4.8.1.9-.6 1.1-1.3 1.2-1 .2-2 .2-3.6.3z"></path><path fill="#050403" d="M399.5 244.5c.8.1 1.5.2 2.3.4 5 1.4 9.6 3.7 13.7 6.9.7.6 1.4 1.2 2 1.9.4.4.8 1 .2 1.5-.5.4-1.2.4-1.6-.1-.5-.4-.9-.8-1.4-1.1-3.4-2.8-7.3-4.9-11.4-6.4-1.6-.6-3.2-1-4.9-1.1-.8-.1-1.7-.1-1.5-1.2.1-.8.9-.8 1.6-.8.2-.1.4 0 1 0z"></path><path fill="#080604" d="m419.9 284.2-3-.6c-4-1.1-7.9-2.6-11.6-4.5-.2-.1-.3-.2-.4-.3-.7-.4-1.8-.8-1.2-1.9.5-.9 1.3-.3 2 0 2.2 1 4.3 1.9 6.5 2.8 2.3.9 4.6 1.6 7 2.1.3.1.7.1 1 .2.6.2 1.2.4 1.1 1.1s-.7 1.1-1.4 1.1z"></path><path fill="#0c0905" d="M403 301.5c-3.9-.3-7.7-.8-11.5-1.5-.2 0-.3-.1-.5-.1-.8-.3-1.9-.4-1.6-1.5s1.3-.6 2.1-.5c4 .8 8 1.3 12.1 1.5.4 0 .9 0 1.3.1.6 0 1.3.3 1.3.9s-.7 1.1-1.4 1.2c-.4 0-.9-.1-1.8-.1z"></path><path fill="#0a0805" d="M378 254c0 1.8.2 3.5.5 5.3.1.6.1 1.2.1 1.8 0 .4-.3.6-.6.7-.3.1-.7 0-.9-.3-.3-.4-.5-.9-.6-1.4-.5-2.4-.7-4.8-.6-7.3 0-.4.1-.8.2-1.2.1-.5.7-.8 1.2-.7.4.1.7.5.7.9v2.2z"></path><path fill="#c5b874" d="M418.2 307.5c.8.2 1.5.7 2 1.3-.4.1-.9.1-1.1.6-.5-.2-.8-.5-1-1-.2-.3-.2-.7.1-.9z"></path><path fill="#baac6c" d="M435.3 325.1c-.4 0-.8-.1-1-.5l.6-.7c.6 0 1 .4 1.5.6-.1 1.1-.6.7-1.1.6z"></path><path fill="#737047" d="M441 291.5c-.4-.3-.8-.8-.3-1.2.3-.2.7.2.9.7l-.6.5z"></path><path fill="#57452b" d="M444 318.9c.4.1.8.5.6.8-.4.5-.8.1-1.1-.3l.5-.5z"></path><path fill="#ffd574" d="M450.6 297.6c-.2-.3-.6-.5-.6-.9l.6-.1c.4.2.5.6.6 1-.1.1-.3.2-.6 0 .1 0 .1 0 0 0z"></path><path fill="#b5935c" d="M449.8 312.8c.3 0 .4.2.4.5.2.2.2.5 0 .7-.5-.2-.9-.6-1-1.1l.6-.1z"></path><path fill="#b1b16f" d="M432.2 303.2c-.3-.1-.4-.4-.2-.5.4-.2.8 0 1 .4l-.8.1z"></path><path fill="#e6d5b3" d="m331.2 363.6 2.5-2c-.3 1.1-1 2-2 2.5l-.5-.5z"></path><path fill="#e8d5b0" d="M382.5 362.1c0 .7-.4 1.3-1 1.5l-.6-.5c.3-.6.9-1 1.6-1z"></path><path fill="#010101" d="M335.3 133.2c-3.4-4.8-3.5-9.8-.3-13.7 1.4-1.9 3.5-3.1 5.8-3.3 3.8-.4 7.1 2.2 8.1 6.2.2.7.2 1.5.4 2.4 1.4.2 2.6-.8 3.8-.5.6-.6.2-1.2.2-1.8-.4-2.9.1-5.8 1.4-8.3 1.5-2.7 3.8-4.4 7-4.3 3.1-.1 6 1.6 7.6 4.3 1.1 1.9 1.7 4.1 1.8 6.3 1.3.4 2.5-.2 3.8 0 .7.1 1.7 0 1.7 1s-.8 1.2-1.6 1.1c-5.4-.2-9.4 2.8-13.3 6-1.2 1.1-2.1 2.5-2.7 3.9-1.1 2.1-2.1 4.2-3.3 6.3-1.1 1.9-1.8 2-3.7.8-2.2-1.3-4.3-2.7-6.5-4-1.1-.7-2.4-1-3.6-.8-.6.1-1.2.1-1.8.1-2.6-.3-5.1.5-7.2 2.1-.6.5-1.4 1-2 .1s.1-1.4.7-1.9c1.2-.7 2.4-1.4 3.7-2z"></path><path fill="#070503" d="M348.6 112.7c-.1 1.2-.8 1.5-1.5 1.1s-1.2-.9-1.9-1.3c-3.8-2.5-7.3-1.8-9.8 2-.4.6-.8 1.3-1.1 2s-.8.9-1.5.5c-.5-.3-.5-.8-.4-1.3 1.3-4.3 5.5-7 9.9-6.6 2 .3 3.9 1.2 5.4 2.6.6.3.9.8.9 1z"></path><path fill="#080604" d="M367 108.7c0 .5-.4.9-.9.9-.1 0-.2 0-.3-.1-.7-.3-1.4-.6-2-1-4.7-2.5-7.6-1.2-10.7 2.8-.5.7-.6 2-1.9 1.4-.8-.3-.7-1.1.2-2.6.7-1.1 1.6-2.1 2.7-3 2.6-2.1 5.5-2.8 8.8-1.4 1.1.5 2.1 1 3.2 1.5.5.3.9.8.9 1.5z"></path><path fill="#100c07" d="M395.6 144.8c0 .5-.4.9-.9.9-.2 0-.4-.1-.5-.2-1.3-1.2-2.6-2.4-3.8-3.7-.5-.5.1-1.4.9-1.4 1.1.1 4.3 3.3 4.3 4.4z"></path><path fill="#120d08" d="M393.3 151.9c-.8 0-3.6-2.3-3.8-3.1-.1-.3 0-.7.2-.9.3-.4.8-.4 1.1-.2 1.1.7 2.2 1.5 3.1 2.5.3.3.4.8.2 1.2-.1.3-.5.5-.8.5z"></path><path fill="#16100a" d="M330.5 158.3c-.6 1.2-1.2 2.4-2 3.5-.4.6-1.3.1-1.4-.6.1-1.4.7-2.8 1.8-3.7.4-.3 1.1-.2 1.4.2.2.2.2.4.2.6z"></path><path fill="#110c08" d="M329.2 154.4c-1 .6-1.1 1.8-1.8 2.7-.3.4-.9.2-1.1-.1-.6-.8-.6-2 .1-2.8.4-.8 1.3-1.2 2.1-.9.5.1.7.5.7 1.1z"></path><path fill="#c6a76c" d="M319.1 154.7c-.3-.9-.1-1.8.4-2.6.5.6.7 1.4.5 2.2-.3.3-.5.6-.9.4z"></path><path d="m319.1 154.7.9-.4v1.5l-.9 1.5c-.1-.9-.1-1.8 0-2.6zM192.8 144.2c-.5 1.7-2.2 2.3-3.3 3.5-1.3.7-2.8.9-4.2.7-4.5-.5-8.9-.7-13.4-.4-5.4.1-10.8-.7-16.2-.6-2.9.1-3.1.2-3.1 3.2v18c.1 4.7 0 9.3-.4 13.9-.4 3.5 0 3.6 3.4 3.9 5.7.6 11.5.4 17.2.5 1.2 0 2.4-.2 3.3.9 3.6.4 7.2.2 10.8.2h3.7c-.1 1.1-.2 2.1-.3 3.1-9.6.3-19.1-.1-28.7-.3-2.9-.1-5.8-.2-8.6-.3-1.8-.1-1.8-.1-1.9 1.8-.1 10.3-1.1 20.5-.5 30.8.1.8.1 1.5 0 2.3 0 .6-.5 1.1-1.1 1.2-.7.2-1.4-.2-1.6-.9-.2-.6-.3-1.3-.4-2-.3-5.1-.4-10.2-.2-15.2.2-5.3.4-10.7.5-16 0-1.9 0-2-1.9-2-13.4-.4-26.8-.1-40.1.8-5.7.4-11.3.7-17 1.1l-16.2 1.2c-1.7.1-1.8.2-1.7 2 .7 8.9.3 17.8.8 26.7.3 5.3-.2 10.5-.1 15.8 0 .3 0 .7-.1 1-.1.6-.6 1.1-1.2 1.1-.6.1-1.2-.2-1.5-.8-.4-.8-.6-1.8-.4-2.7.3-7.7-.1-15.4-.1-23.1 0-5.9-.4-11.7-.6-17.5-.1-2-.1-2.1-2.2-1.9-6.9.6-13.8 1.3-20.8 1.4h-7.9c-.9 0-1.7-.2-2.4-.6-.5-.3-.8-1-.6-1.5.1-.5.6-.9 1.1-.9h1c8.6.6 17.1-.6 25.6-1.2 1.6-.1 3.2-.3 4.8-.4.8 0 1.2-.4 1.2-1.3v-.8c-.4-12.4-.1-24.7-.2-37.1 0-1.3-.1-2.5-.1-3.8 0-1-.4-1.5-1.5-1.4-4.6.3-9.1.1-13.7.5-3.1.3-6.3.4-9.4.3-4.7 0-9.3 0-14 .1-1.1 0-2.1.1-2.4-1.2-.2-.9.9-1.6 2.4-1.7 3.4-.1 6.8-.3 10.2-.3 6.5.1 12.9-.6 19.3-.8 2.4-.1 4.7-.2 7.1-.2 1.3 0 1.8-.3 1.7-1.7-.2-5.4-.3-10.8-.4-16.2-.1-5.1-.2-10.2 0-15.3 0-1.3-.1-2.7-.1-4.1-.1-.6 0-1.2.2-1.7.3-.6 1.1-.9 1.7-.6.2.1.4.3.5.5.3.6.5 1.3.5 2 0 2.5 0 4.9.1 7.4.2 9.1.4 18.1.7 27.2.1 2.4.1 2.4 2.6 2.4 15.9.1 31.8.9 47.8.4 8.8-.3 17.6-.9 26.4-.5 1.2 0 1.4-.4 1.4-1.5-.1-3.6-.2-7.3-.5-10.9-.5-7.4-.5-14.9-1.6-22.3-.1-.8-.2-1.7-.1-2.5 0-1 .1-2 1.4-2 1.1 0 1.3.8 1.4 1.7.3 2.3.6 4.5.8 6.8.9 9.3 1.4 18.7 1.7 28.1v1.5c0 .9.4 1.2 1.2 1.2 1.1 0 2.2.2 3.3.2 11.8.4 23.5.8 35.3.8h1.6z"></path><path fill="#e17476" d="M219.7 129.9c-1.4.9-2.8 1.8-4.5 1-.2-.5-.1-1 .3-1.4 3.3-5.7 1.7-10.8-2.4-15.3-6.5-7.2-14.9-10.4-24.3-11.1-4.6-.4-9.2.3-13.5 1.9-8.6 3.3-11.1 10.9-6.1 18.6 2.9 4.5 7.2 7.4 12 9.5 6.3 2.8 12.8 4.3 19.8 3.5.8-.1 1.5-.3 2.1.5-1.7 1.4-3.6 2.6-5.5 3.5-9.6.1-19-3.2-26.5-9.3-2.8-2.2-5.1-5-6.6-8.2-3.2-6.6-2-14.3 4.8-19.1 3.6-2.5 7.8-4.1 12.2-4.6 9.8-1.2 19.8 1.1 28.1 6.5 4.1 2.5 7.4 6 9.7 10.1 2.3 4.2 2.5 9.4.4 13.9z"></path><path fill="#030202" d="M195.5 217.4c3.4.2 9.6.6 15.9 1 1 .1 2.4 0 2.5 1.5.1 1-.8 1.3-2.8 1.2-10.3-.8-20.6-1.3-30.9-1.6-2.4-.2-4.9-.1-7.3.2-.8.1-1.4-.1-1.5-.9-.1-.6.3-1.3.9-1.4h.2c.8-.1 1.7-.2 2.5-.3 5.8-.3 11.7-.1 20.5.3z"></path><path fill="#050404" d="M106.8 218.2c-4.9.2-10.8 0-16.7.6-.8.1-1.6.2-1.8-.9s.6-1.3 1.4-1.6c.5-.1 1-.2 1.5-.2 10.9-.7 21.8-1.1 32.7-.9 1 0 2 .1 3 .3.8.2 1.3.7 1.2 1.4s-.7 1.1-1.5 1.1h-1c-5.9-.1-11.9 0-18.8.2z"></path><path fill="#040303" d="M266.5 116.3c6.4.6 12.8 1 19.2 1.8.7 0 1.4.2 1.9.5.4.3.6.8.5 1.3-.1.5-.5.9-1.1.9-.6 0-1.2 0-1.8-.1-9.9-1-19.9-1.7-29.8-2h-.3c-.9 0-1.8-.2-1.8-1.3s1-1.2 1.9-1.2h3.3l8 .1zM105.3 120.6l11.7.4h1c1 .1 2.3-.1 2.2 1.4-.1 1.3-1.3 1.3-2.4 1.3-5.4-.2-10.8-.4-16.2-.7-2.9-.1-5.7-.3-8.6-.4h-1.5c-.6 0-1.1-.5-1.2-1.1 0-.6.4-1.2 1.1-1.2.6-.1 1.2-.1 1.8-.1l12.1.4z"></path><path fill="#060404" d="M36.2 123.5h11.9c1 .1 2 .1 1.9 1.4-.1 1.1-1 1.2-1.9 1.3h-1c-7.8-.2-15.5-.3-23.3-.8-.7 0-1.4-.1-1.5-1s.6-1.2 1.4-1.3c.5-.1 1-.1 1.5 0 3.7.2 7.4.1 11 .4z"></path><path fill="#070606" d="m37.5 172.8 9.9-.5c.8-.1 1.5-.1 2.3.1.5.2.8.6.9 1.1 0 .5-.3 1-.8 1.1l-1.5.3c-7.3.4-14.7.4-22 0-.8 0-1.7-.1-1.7-1.1s.7-1.4 1.7-1.4l5.3.1h6.1l-.2.3z"></path><path fill="#040404" d="M229.4 127.9c-1 .5-2.2.8-3.3.9l1.2-19.5c0-.3.1-.7.1-1 .1-.7.7-1.2 1.4-1.2s1.3.6 1.3 1.3v2c.1 5.3-.5 10.7-.7 16v1.5z"></path><path fill="#050505" d="M225.5 203.5c1.9 3.2 3.8 6.4 3.6 10.4-.2 1.7-.1 3.5.3 5.2v4.1c0 1-.4 1.9-1.6 2s-1.6-.9-1.6-1.9c-.1-2-.2-4.1-.3-6.1-.1-4.5-.2-9.1-.4-13.7z"></path><path fill="#060808" d="M40.9 217.2H31.2c-.5 0-1-.5-1-1-.1-.6.3-1.2.9-1.3.6-.1 1.2-.2 1.8-.2 5.7-.1 11.3-.1 17-.2h1c.8.1 1.6.4 1.5 1.3s-.8 1.3-1.6 1.3c-3.3 0-6.6 0-9.9.1z"></path><path fill="#050101" d="M213.5 191c-1.2-.3-2.5.1-3.7-.3-.1-1 .1-2 .4-3 1.5-1 3.5-1 5.1-.1 1.7 0 3.4.1 5 .1 1.4-.1 2.3.1 2.2 1.8 0 .4.1.8.3 1.2l-9.3.3z"></path><path fill="#060403" d="M278.6 144.2c-1.7-.5-2.9-1.7-4.3-2.7-.6-.4.2-.4.3-.6h7.1c.5 0 1-.1 1.5 0 .8 0 1.5.4 1.6 1.3.1.8-.5 1.5-1.3 1.7-.7.2-1.5.2-2.3.3h-2.6z"></path><path fill="#1e1b17" d="M198 191.2c0-1.2.4-2.4 1.1-3.4.8-.8 2-.8 2.8-.1l.1.1v1.7c.1 1.2-.7 1.4-1.6 1.7H198z"></path><path fill="#160f0a" d="M235.1 190.9c.1-1.1-.1-2.4.9-3.2.3-.2.8-.2 1.1.1.4 1 .5 2.2.1 3.2l-2.1-.1z"></path><path fill="#020202" d="M280.9 272c0-2.9.3-5.9 1-8.7.1-.5.3-1 .4-1.5.2-.6.6-1 1.3-.8.5.2.8.7.6 1.3 0 .1-.1.2-.1.3-2.9 12-.3 23.3 4.3 34.3 3.7 8.8 9.1 16.6 15.2 23.9.5.6 1 1.2 1.4 1.8.3.4.2 1-.2 1.4-.4.3-1 .3-1.4-.1-.3-.2-.5-.4-.7-.7-9.2-10.9-16.7-22.8-20.2-36.8-1.1-4.7-1.7-9.6-1.6-14.4z"></path><path fill="#070606" d="M382 339.7c-4.4-.2-8.8-1-13-2.6-1-.4-2-.9-2.9-1.5-.7-.4-1.4-.9-.8-1.8s1.2-.4 1.8 0c2.8 1.6 5.9 2.6 9.1 3 3.8.7 7.7.8 11.6.3.3 0 .7-.2 1-.2.5-.1 1 .2 1.3.6.3.7-.3 1.1-.9 1.3-2.1.9-4.2 1-7.2.9z"></path><path fill="#0a0a0a" d="M275.5 246c-.1.2-.1.5-.2.7-1.4 2.8-2.5 5.7-3.3 8.8 0 .2-.1.3-.2.5-.4.7-.6 1.8-1.7 1.4-1-.4-.5-1.3-.3-2 .8-2.9 1.9-5.8 3.1-8.6l.9-1.5c.2-.4.7-.5 1.1-.4.4.3.6.7.6 1.1z"></path><path fill="#100f0f" d="M407.5 208.6c.3 0 .6.2.8.4 1.3 1.6 2.5 3.1 3.8 4.7.4.5.6 1 .1 1.6s-1.1.2-1.5-.2c-1.5-1.5-2.8-3.1-3.9-4.9-.6-.8-.2-1.6.7-1.6z"></path><path fill="#fff" d="M176.1 187.9c-7.8.1-15.6-.2-23.3-.6-1.5-.1-1.6-.1-1.5-2.1.6-8.9.4-17.8.4-26.6 0-3.5-.1-6.9-.1-10.4 0-1.6 0-1.7 1.7-1.6 7.8.2 15.6.4 23.3.7l12.9.4c-3.3 3.6-6.1 7.5-8.4 11.7-.7 1.3-1.1 2.7-1.3 4.1-.5 3 1.6 5.1 4.6 4.7 3.3-.4 6.2-1.8 9.1-3.1 2.5-1.2 5-2.4 7.9-3.9-.3 1.1-.7 2.2-1.4 3.2-3.9 6.6-6.9 13.8-8.7 21.3-.5 1.9-.5 1.9-2.5 2-4.3.1-8.5-.2-12.7.2zM203 137c-4.7.7-9.5.5-14.1-.6-6.7-1.6-12.8-4.4-17.8-9.3-2.1-2.1-3.8-4.6-4.7-7.5-1.6-4.6 0-9.6 3.8-12.5 3.5-2.7 7.7-4.4 12.2-4.6a37.8 37.8 0 0 1 27.3 7.6c2.7 1.9 4.9 4.5 6.5 7.4 2.4 4.7 2.4 9.3-1 13.5-1.4 1.4-3.2 1.9-4.9 2.6-2.5 1-4.9 2.2-7.3 3.4zM215.4 187.7l-5.1.1c.6-5.8 2-11.5 4.2-16.9 1.6-4.1 3.6-8 5.4-12 .2-.4.5-.8.8-1.1-.1 4.9-.3 9.8.1 14.7s.9 9.7 1.4 14.6c-2.3.7-4.7-.2-6.8.6z"></path><path fill="#020101" d="m229.9 140.9-2.3.1c-.6 0-1.1-.1-1.2-.7-.1-.5.2-1.1.8-1.2h.2c1-.1 2-.2 3-.2 9.1.1 17.5 4.5 22.8 11.8 4.1 5.6 7.3 11.8 9.3 18.5 2.3 7.2 4.2 14.5 7 21.5.7 1.6 1.4 3.3 2.1 4.9 1 2.3 2.6 4.2 4.7 5.5l.8.6c.7.5 1.6 1 .9 2s-1.6.2-2.2-.2c-2.6-1.5-4.7-3.7-6-6.4-2.7-6.1-5-12.4-6.9-18.8-2-6.5-3.7-13.2-7.1-19.2-1.9-3.5-4.2-6.8-6.8-9.7-5.1-5.7-11.6-8.3-19.1-8.5z"></path><path fill="#fff" d="M202 187.8h-2.9c.2-2.4 1.2-4.5 2-6.8 1.5-4.8 3.4-9.5 5.6-14.1.5-.1.7 0 .5.5-1 3.2-1.9 6.5-2.9 9.7-1 3.6-1.7 7.2-2.3 10.7zM237.1 187.7l-1.1-.1c-.8-.9-.1-1.9 0-2.8s.4-2.1.6-3.1c1.5 1.6.5 3.4.5 5.1v.9z"></path><path fill="#ffd574" d="M237.2 186.8c-.3-1.7.4-3.4-.5-5.1 0-.7.3-1.4.8-2 0 2.4.5 4.8-.3 7.1zM207.2 167.5l-.5-.5 1.3-2.7c.2 1.2-.1 2.3-.8 3.2z"></path><path fill="#e8d5b0" d="M382.5 362.1c0-.1.1-.2.1-.2s.2.1-.1.2z"></path><path fill="#534e31" d="M437.4 325c.5.1.9.4 1.2.8-.6.4-1.2.1-1.7-.2 0-.3.3-.4.5-.6z"></path><path fill="#8e7449" d="m437.4 325-.5.6c-.6 0-1.1-.2-1.5-.5.4-.1.8-.1 1.1-.5l.9.4z"></path><path fill="#896e45" d="M450.6 297.6h.6c.4.1.5.6.3.7-.6.3-.7-.3-.9-.7z"></path><path fill="#ffd574" d="m418.2 307.5-.1.9c-.5-.2-.8-.7-1-1.2.2-.2.4-.2.6-.1l.5.4z"></path><path fill="#677147" d="m417.7 307.2-.6.1c-.2-.1-.4-.3-.1-.4s.5 0 .7.3z"></path><path fill="#756e45" d="M450.1 314v-.7c.3.3.6.5.3.9-.1.1-.2 0-.3-.2z"></path><path fill="#fcfde3" d="M359.4 127.8c-.5-.4-1-.8-1.6-1.1-2.2-.8-2.6-2.6-2.7-4.6-.3-2.4.2-4.8 1.3-6.9 1.6-2.9 5.3-4 8.3-2.3 1 .5 1.8 1.4 2.3 2.3.5.9.9 1.8 1.1 2.8.8 2.9.7 3.2-2 4.7-2.3 1.4-4.6 3.1-6.7 5.1z"></path><path fill="#fcfce2" d="M346.9 124.7c0 3.7-3 7.5-6.2 7.9-1.8.3-3.6-.5-4.6-2-2.8-3.8-.9-10.3 3.6-11.9 2-.8 4.4-.2 5.7 1.6 1 1.2 1.5 2.8 1.5 4.4z"></path><path fill="#f9fae1" d="M357.9 129.6c-.5 1.1-1.1 2.1-1.5 3.3-.3 1-1.3 1.6-2.3 1.3h-.1c-2.6-.4-5.2-1.3-8.4-1.2 1.2-1.3 2.1-2.7 3-4.3 1.1-2 3.7-2.7 5.7-1.6 1.3.5 2.6 1.4 3.6 2.5z"></path><path fill="#d6dcc6" d="M351.6 135.9c.9 0 1.8.2 2.6.6-.6 1.9-.6 1.9-2.1 1-.6-.3-1.1-.7-1.6-1.1 0-1 .6-.7 1.1-.5z"></path><path fill="#99a796" d="M351.6 135.9c-.4.2-.9.1-1.1.5l-1-.5c-.1-.4.1-.7.6-.5.5 0 1.1.1 1.5.5z"></path><path fill="#36584f" d="m350 135.3-.6.5c-.4-.1-.9-.4-.6-.7s.9-.1 1.2.2z"></path><path fill="#fff" d="M109.2 147c6.3.1 12.7-.2 19-.6 6-.3 12-.4 18-.2 2 .1 2 .1 2.1 2.2.3 10 .2 20 0 30-.1 2.4-.2 4.9-.2 7.4 0 1.3-.5 1.6-1.7 1.5-1.7-.1-3.4-.2-5.1-.2-12.7-.4-25.4.3-38 1.1-5.9.4-11.8.7-17.7 1.1-4 .3-8.1.6-12.2 1-2.5.2-2.5.2-2.6-2.2-.5-11.3-.1-22.5-.3-33.8 0-1.9-.1-3.9-.1-5.8 0-2.2 0-2.2 2-2.1 12.3.4 24.6 0 36.8.6z"></path><path fill="#070505" d="M174.9 174.4h-13.5c-.7 0-1.4-.3-1.5-1.1-.1-1 .6-1.3 1.5-1.4h1.3c7.9.2 15.7.2 23.6.1.7 0 1.3 0 2 .1.8.1 1.4.6 1.3 1.6s-.8 1-1.5 1c-3 0-5.9.1-8.9.1h-4.3v-.4z"></path><path fill="#040303" d="m188.7 119.9-12.9-.4h-1c-.6-.1-1.1-.5-1.1-1.2 0-.6.5-1.1 1.1-1.2.6-.1 1.2-.1 1.8-.1 8.2.2 16.4.4 24.6.7 2 .1 2.9.6 2.7 1.5-.4 1.5-1.7 1.2-2.7 1.2-4.1-.1-8.3-.3-12.4-.4l-.1-.1z"></path><path fill="#030302" d="M364.1 120.2c0 1.9-1.3 3.6-3.2 4-1.8.3-3.1-.4-3.8-2.4-.4-.8-.6-1.6-.7-2.4-.2-1.5.6-2.9 1.9-3.5 1.3-.6 2.9-.4 4 .6 1.1.9 1.8 2.2 1.8 3.7z"></path><path fill="#030202" d="M341.6 122.2c2.1 0 3.5 1.7 3.5 4.1-.2 2.3-2.1 4-4.3 4-1.9-.1-3.4-1.7-3.4-3.6v-.1c-.1-2.3 1.7-4.3 4-4.4h.2z"></path><path fill="#1b1815" d="M353.4 130.7c-.9-.4-2-.2-2.6.6-.3.4-.8.5-1.2.2 0 0-.1 0-.1-.1-.6-.5-.4-1-.1-1.6.9-1.5 4-2 5.4-.8.3.2.4.5.4.9-.1.4-.4.7-.9.8-.4.1-.6.1-.9 0z"></path><path fill="#060505" d="M104.6 172.4c-5.3.1-10.6-.2-15.8-.3-.4 0-.8 0-1.3-.1-.4-.1-.7-.4-.8-.9-.1-.4.1-.9.5-1.1.7-.4 1.4-.5 2.2-.4 10.5.3 21 .1 31.5-.2 1.9 0 2.7.4 2.5 1.3-.2 1.4-1.4 1.3-2.4 1.3-5.5.1-11 .6-16.4.4z"></path></svg>